<?xml version="1.0" standalone="no"?>
<!DOCTYPE svg PUBLIC "-//W3C//DTD SVG 20010904//EN"
 "http://www.w3.org/TR/2001/REC-SVG-20010904/DTD/svg10.dtd">
<svg class="res" version="1.0" xmlns="http://www.w3.org/2000/svg"
 width="661.000000pt" height="478.000000pt" viewBox="0 0 661.000000 478.000000"
 preserveAspectRatio="xMidYMid meet">

<g transform="translate(0.000000,478.000000) scale(0.100000,-0.100000)"
fill="#000000" stroke="none">
<path d="M5723 3618 c-24 -5 -43 -13 -43 -17 0 -5 33 -10 74 -13 48 -3 89 -13
120 -28 193 -93 112 -398 -203 -765 -178 -207 -764 -798 -1151 -1162 -337
-316 -389 -373 -437 -474 -22 -46 -48 -101 -57 -121 -29 -68 -75 -41 -116 69
-31 82 -35 158 -16 245 19 84 124 306 253 533 141 248 322 563 478 835 251
435 285 515 265 622 -16 82 -54 135 -115 158 -16 7 -64 12 -107 12 -232 0
-612 -171 -1103 -497 -403 -267 -502 -369 -512 -524 -3 -52 0 -73 15 -101 20
-38 98 -103 112 -95 5 3 -7 35 -27 72 -28 55 -33 74 -28 102 15 79 53 121 245
266 443 334 978 643 1235 711 28 8 78 14 113 14 82 0 112 -25 112 -94 0 -89
-29 -145 -269 -530 -120 -192 -151 -246 -351 -606 -183 -330 -318 -603 -360
-726 -69 -207 -46 -372 72 -500 70 -76 105 -60 177 85 18 35 44 80 59 99 15
19 135 132 267 251 415 373 470 425 890 844 523 521 613 626 705 822 55 115
70 170 70 252 0 90 -16 130 -73 187 -78 77 -174 101 -294 74z"/>
<path d="M1822 3409 c-281 -26 -564 -173 -822 -429 -298 -296 -497 -653 -582
-1041 -30 -140 -33 -438 -5 -539 48 -177 167 -345 298 -423 277 -164 685 -114
1005 122 149 110 266 254 355 436 44 92 105 255 94 255 -2 0 -25 -33 -52 -72
-120 -183 -352 -441 -483 -539 -77 -57 -260 -144 -355 -169 -258 -66 -500 -43
-617 60 -169 149 -213 571 -100 961 112 384 392 788 706 1022 299 221 671 311
916 222 132 -48 179 -103 165 -192 -8 -57 -44 -97 -164 -183 -104 -74 -271
-216 -271 -231 0 -16 11 -10 84 44 99 74 149 107 236 155 159 87 196 128 188
212 -8 80 -127 228 -220 276 -91 46 -230 66 -376 53z"/>
</g>
</svg>
